<?xml version="1.0" encoding="utf-8"?>
<!-- Svg Vector Icons : http://www.onlinewebfonts.com/icon -->
<!DOCTYPE svg PUBLIC "-//W3C//DTD SVG 1.1//EN" "http://www.w3.org/Graphics/SVG/1.1/DTD/svg11.dtd">
<svg version="1.1" xmlns="http://www.w3.org/2000/svg" xmlns:xlink="http://www.w3.org/1999/xlink" x="0px" y="0px"
    viewBox="0 0 1000 1000" enable-background="new 0 0 1000 1000" xml:space="preserve">
    <metadata> Svg Vector Icons : http://www.onlinewebfonts.com/icon </metadata>
    <g>
        <g transform="translate(0.000000,512.000000) scale(0.100000,-0.100000)">
            <path fill="white"
                d="M795,4986.3c-323.3-86.1-575.9-344.4-662-671.5c-44-166.4-44-8224.9,0-8391.3c86.1-331,340.5-587.4,669.6-673.5c99.5-24.9,591.2-28.7,4199.5-28.7c4457.8,0,4178.4-7.7,4404.2,107.1c135.8,68.9,304.2,235.4,376.9,369.3c124.4,235.3,116.7-78.5,116.7,4421.4c0,3608.3-3.8,4100-28.7,4199.5c-86.1,329.1-342.5,583.5-673.4,669.6C9035.1,5030.3,953.8,5028.4,795,4986.3z M9239.9,4655.3c120.5-61.2,250.6-189.4,302.3-304.2l42.1-89.9V119.1V-4023l-45.9-95.7c-61.2-120.5-177.9-237.2-298.5-298.4l-95.7-45.9H5002.1H860l-89.9,42.1c-114.8,51.7-243,181.7-304.2,302.3L420-4023L414.2,61.7c-3.8,2808.6,1.9,4115.3,15.3,4180.4c42.1,197.1,225.8,390.3,420.9,443.9c67,17.2,1010.2,21,4189.9,19.1l4103.8-3.8L9239.9,4655.3z" />
            <path fill="white"
                d="M1118.3,4387.5C953.8,4333.9,848.5,4244,772,4098.6c-67-126.3-63.1-336.7,5.7-468.7c101.4-193.2,256.4-287,474.5-287s373.1,93.7,474.5,287c42.1,78.4,49.7,120.5,49.7,239.2c0,221.9-95.7,378.8-294.6,478.3C1390,4393.2,1200.6,4414.2,1118.3,4387.5z M1409.1,4027.8c139.7-141.6,40.2-388.4-156.9-388.4c-114.8,0-229.6,114.8-229.6,229.6C1022.6,4066,1269.4,4167.4,1409.1,4027.8z" />
            <path fill="white"
                d="M8600.8,4383.6c-361.6-105.2-503.2-570.1-258.3-855.2c109.1-128.2,235.3-183.7,409.4-185.6c218.1,0,373.1,93.7,474.5,287c72.7,137.8,72.7,340.5,0,480.2C9105.9,4339.6,8845.7,4452.5,8600.8,4383.6z M8857.2,4067.9c67-30.6,124.4-124.4,124.4-199c0-23-13.4-70.8-30.6-105.2c-30.6-67-124.4-124.4-199-124.4c-168.4,0-283.2,199-199,342.5C8618.1,4092.8,8736.7,4125.3,8857.2,4067.9z" />
            <path fill="white"
                d="M3930.7,3639.4v-459.2H3749c-168.4,0-187.5-3.8-229.6-47.8c-45.9-44-47.8-55.5-47.8-306.1V2568h-281.2c-243,0-294.6-5.7-369.2-40.2c-114.8-51.7-168.4-103.3-221.9-218.1c-42.1-86.1-45.9-120.5-45.9-376.9v-283.1h-258.3c-250.6,0-262.1-1.9-306.1-47.8c-44-42.1-47.8-61.2-47.8-229.6v-181.8h-459.2h-459.2v-153.1V884.4h459.2H1941V731.3V578.3h-459.2h-459.2V425.2V272.2h459.2H1941V119.1V-34h-459.2h-459.2V-187v-153.1h459.2H1941v-153.1v-153.1h-459.2h-459.2v-153.1v-153.1h459.2H1941v-181.7c0-168.4,3.8-187.5,47.8-229.6c44-45.9,55.5-47.8,306.1-47.8h258.3v-281.3c0-258.3,3.8-292.7,45.9-378.8c53.6-114.8,107.1-166.4,221.9-218.1c74.6-34.5,126.3-40.2,369.2-40.2h281.2v-258.3c0-250.6,1.9-262.1,47.8-306.1c42.1-44,61.2-47.8,229.6-47.8h181.8v-459.2v-459.2h153.1h153.1v459.2v459.2h153.1h153.1v-459.2v-459.2H4696h153.1v459.2v459.2h153.1h153.1v-459.2v-459.2h153.1h153.1v459.2v459.2h153.1h153.1v-459.2v-459.2h153.1h153.1v459.2v459.2h181.7c168.4,0,187.5,3.8,229.6,47.8c45.9,44,47.8,55.5,47.8,306.1v258.3h283.1c241.1,0,292.7,5.7,367.3,40.2c114.8,51.6,168.4,103.3,221.9,218.1c42.1,86.1,45.9,120.5,45.9,378.8v281.3h258.3c250.6,0,262.1,1.9,306.1,47.8c44,42.1,47.8,61.2,47.8,229.6v181.7h459.2h459.2v153.1v153.1h-459.2h-459.2v153.1v153.1h459.2h459.2V-187V-34h-459.2h-459.2v153.1v153.1h459.2h459.2v153.1v153.1h-459.2h-459.2v153.1v153.1h459.2h459.2v153.1v153.1h-459.2h-459.2v181.8c0,168.4-3.8,187.5-47.8,229.6c-44,45.9-55.5,47.8-306.1,47.8H7451v283.1c0,241.1-5.7,292.7-40.2,367.3c-51.7,114.8-103.3,168.4-218.1,221.9c-86.1,42.1-120.5,45.9-376.9,45.9h-283.1v239.1c0,250.6-21,336.7-86.1,361.6c-17.2,5.7-109.1,11.5-202.8,11.5h-170.3v459.2v459.2h-153.1h-153.1v-459.2v-459.2h-153.1h-153.1v459.2v459.2h-153.1h-153.1v-459.2v-459.2h-153.1h-153.1v459.2v459.2H4696h-153.1v-459.2v-459.2h-153.1h-153.1v459.2v459.2h-153.1h-153.1V3639.4z M6226.6,2721.1V2568H5002.1H3777.7v153.1v153.1h1224.5h1224.5V2721.1z M7100.9,2219.8l44-40.2V121v-2056.7l-42.1-44l-40.2-44H5004H2947.3l-44,42.1l-44,40.2V117.2v2056.7l42.1,44l40.2,44h2058.6h2056.7L7100.9,2219.8z M2553.2,119.1v-1224.5h-153.1h-153.1V119.1v1224.4h153.1h153.1V119.1z M7757.1,119.1v-1224.5h-153.1H7451V119.1v1224.4h153.1h153.1V119.1z M6226.6-2482.9v-153.1H5002.1H3777.7v153.1v153.1h1224.5h1224.5V-2482.9z" />
            <path fill="white"
                d="M3672.4,1448.8c-95.7-93.7-28.7-258.3,105.2-258.3c78.4,0,153.1,74.6,153.1,153.1s-74.6,153.1-153.1,153.1C3741.3,1496.6,3701.1,1479.4,3672.4,1448.8z" />
            <path fill="white"
                d="M4284.7,1448.8c-95.7-93.7-28.7-258.3,105.2-258.3c78.4,0,153.1,74.6,153.1,153.1s-74.6,153.1-153.1,153.1C4353.5,1496.6,4313.3,1479.4,4284.7,1448.8z" />
            <path fill="white"
                d="M4896.9,1448.8c-95.7-93.7-28.7-258.3,105.2-258.3c36.4,0,76.5,17.2,105.2,47.8c30.6,28.7,47.8,68.9,47.8,105.2c0,36.4-17.2,76.5-47.8,105.2c-28.7,30.6-68.9,47.8-105.2,47.8C4965.8,1496.6,4925.6,1479.4,4896.9,1448.8z" />
            <path fill="white"
                d="M5509.1,1448.8c-30.6-28.7-47.8-68.9-47.8-105.2c0-36.3,17.2-76.5,47.8-105.2c28.7-30.6,68.9-47.8,105.2-47.8s76.5,17.2,105.2,47.8c30.6,28.7,47.8,68.9,47.8,105.2c0,36.4-17.2,76.5-47.8,105.2c-28.7,30.6-68.9,47.8-105.2,47.8S5537.8,1479.4,5509.1,1448.8z" />
            <path fill="white"
                d="M6121.3,1448.8c-30.6-28.7-47.8-68.9-47.8-105.2c0-36.3,17.2-76.5,47.8-105.2c28.7-30.6,68.9-47.8,105.2-47.8s76.5,17.2,105.2,47.8c30.6,28.7,47.8,68.9,47.8,105.2c0,36.4-17.2,76.5-47.8,105.2c-28.7,30.6-68.9,47.8-105.2,47.8S6150,1479.4,6121.3,1448.8z" />
            <path fill="white"
                d="M3978.5,836.5c-95.7-93.7-28.7-258.3,105.2-258.3c78.4,0,153.1,74.6,153.1,153.1c0,78.4-74.6,153.1-153.1,153.1C4047.4,884.4,4007.2,867.2,3978.5,836.5z" />
            <path fill="white"
                d="M4590.8,836.5c-95.7-93.7-28.7-258.3,105.2-258.3c78.4,0,153.1,74.6,153.1,153.1c0,78.4-74.6,153.1-153.1,153.1C4659.6,884.4,4619.5,867.2,4590.8,836.5z" />
            <path fill="white"
                d="M5203,836.5c-30.6-28.7-47.8-68.9-47.8-105.2c0-36.3,17.2-76.5,47.8-105.2c28.7-30.6,68.9-47.8,105.2-47.8s76.5,17.2,105.2,47.8c30.6,28.7,47.8,68.9,47.8,105.2c0,36.4-17.2,76.5-47.8,105.2c-28.7,30.6-68.9,47.8-105.2,47.8S5231.7,867.2,5203,836.5z" />
            <path fill="white"
                d="M5815.2,836.5c-30.6-28.7-47.8-68.9-47.8-105.2c0-36.3,17.2-76.5,47.8-105.2c28.7-30.6,68.9-47.8,105.2-47.8s76.5,17.2,105.2,47.8c30.6,28.7,47.8,68.9,47.8,105.2c0,36.4-17.2,76.5-47.8,105.2c-28.7,30.6-68.9,47.8-105.2,47.8S5843.9,867.2,5815.2,836.5z" />
            <path fill="white"
                d="M3672.4,224.3C3576.8,130.6,3643.7-34,3777.7-34c36.3,0,76.5,17.2,105.2,47.8c95.7,93.8,28.7,258.3-105.2,258.3C3741.3,272.2,3701.1,254.9,3672.4,224.3z" />
            <path fill="white"
                d="M4284.7,224.3C4189,130.6,4256-34,4389.9-34c36.3,0,76.5,17.2,105.2,47.8c95.7,93.8,28.7,258.3-105.2,258.3C4353.5,272.2,4313.3,254.9,4284.7,224.3z" />
            <path fill="white"
                d="M4896.9,224.3C4801.2,130.6,4868.2-34,5002.1-34c78.4,0,153.1,74.6,153.1,153.1c0,36.3-17.2,76.5-47.8,105.2c-28.7,30.6-68.9,47.8-105.2,47.8C4965.8,272.2,4925.6,254.9,4896.9,224.3z" />
            <path fill="white"
                d="M5509.1,224.3C5413.4,130.6,5480.4-34,5614.3-34c78.4,0,153.1,74.6,153.1,153.1c0,36.3-17.2,76.5-47.8,105.2c-28.7,30.6-68.9,47.8-105.2,47.8S5537.8,254.9,5509.1,224.3z" />
            <path fill="white"
                d="M6121.3,224.3C6025.7,130.6,6092.6-34,6226.6-34c78.4,0,153.1,74.6,153.1,153.1c0,36.3-17.2,76.5-47.8,105.2c-28.7,30.6-68.9,47.8-105.2,47.8S6150,254.9,6121.3,224.3z" />
            <path fill="white"
                d="M3978.5-387.9c-95.7-93.7-28.7-258.3,105.2-258.3c36.3,0,76.5,17.2,105.2,47.8c30.6,28.7,47.8,68.9,47.8,105.2c0,36.4-17.2,76.5-47.8,105.2c-28.7,30.6-68.9,47.8-105.2,47.8S4007.2-357.3,3978.5-387.9z" />
            <path fill="white"
                d="M4590.8-387.9c-95.7-93.7-28.7-258.3,105.2-258.3c36.3,0,76.5,17.2,105.2,47.8c30.6,28.7,47.8,68.9,47.8,105.2c0,36.4-17.2,76.5-47.8,105.2c-28.7,30.6-68.9,47.8-105.2,47.8S4619.5-357.3,4590.8-387.9z" />
            <path fill="white"
                d="M5203-387.9c-95.7-93.7-28.7-258.3,105.2-258.3c78.4,0,153.1,74.6,153.1,153.1c0,78.5-74.6,153.1-153.1,153.1C5271.9-340.1,5231.7-357.3,5203-387.9z" />
            <path fill="white"
                d="M5815.2-387.9c-95.7-93.7-28.7-258.3,105.2-258.3c78.4,0,153.1,74.6,153.1,153.1c0,78.5-74.6,153.1-153.1,153.1C5884.1-340.1,5843.9-357.3,5815.2-387.9z" />
            <path fill="white"
                d="M3672.4-1000.1c-95.7-93.7-28.7-258.3,105.2-258.3c36.3,0,76.5,17.2,105.2,47.8c30.6,28.7,47.8,68.9,47.8,105.2c0,36.4-17.2,76.5-47.8,105.2c-28.7,30.6-68.9,47.8-105.2,47.8S3701.1-969.5,3672.4-1000.1z" />
            <path fill="white"
                d="M4284.7-1000.1c-95.7-93.7-28.7-258.3,105.2-258.3c36.3,0,76.5,17.2,105.2,47.8c30.6,28.7,47.8,68.9,47.8,105.2c0,36.4-17.2,76.5-47.8,105.2c-28.7,30.6-68.9,47.8-105.2,47.8S4313.3-969.5,4284.7-1000.1z" />
            <path fill="white"
                d="M4896.9-1000.1c-95.7-93.7-28.7-258.3,105.2-258.3c78.4,0,153.1,74.6,153.1,153.1c0,78.5-74.6,153.1-153.1,153.1C4965.8-952.3,4925.6-969.5,4896.9-1000.1z" />
            <path fill="white"
                d="M5509.1-1000.1c-95.7-93.7-28.7-258.3,105.2-258.3c78.4,0,153.1,74.6,153.1,153.1c0,78.5-74.6,153.1-153.1,153.1C5578-952.3,5537.8-969.5,5509.1-1000.1z" />
            <path fill="white"
                d="M6121.3-1000.1c-95.7-93.7-28.7-258.3,105.2-258.3c78.4,0,153.1,74.6,153.1,153.1c0,78.5-74.6,153.1-153.1,153.1C6190.2-952.3,6150-969.5,6121.3-1000.1z" />
            <path fill="white"
                d="M1101.1-3116.1c-361.6-105.2-503.2-570.1-258.3-855.2c109-128.2,235.3-183.7,409.4-185.6c218.1,0,373.1,93.8,474.5,287c72.7,137.8,72.7,340.5,0,480.2C1606.2-3160.2,1346-3047.3,1101.1-3116.1z M1357.5-3431.8c67-30.6,124.4-124.4,124.4-199c0-114.8-114.8-229.6-229.6-229.6c-168.4,0-283.2,199-199,342.5C1118.3-3407,1236.9-3374.4,1357.5-3431.8z" />
            <path fill="white"
                d="M8600.8-3116.1c-141.6-44-254.5-141.6-331-285.1c-65-126.3-63.1-336.7,7.7-468.7c101.4-193.2,256.4-287,474.5-287c218.1,0,373.1,93.8,474.5,287c42.1,78.4,49.8,120.5,49.8,239.2c0,221.9-95.7,378.8-294.6,478.3C8884-3102.8,8700.3-3085.5,8600.8-3116.1z M8857.2-3431.8c132-63.2,158.8-248.7,51.7-355.9c-183.7-183.7-487.9,47.8-355.9,269.8C8618.1-3407,8736.7-3374.4,8857.2-3431.8z" />
        </g>
    </g>
</svg>